<svg width="16" height="16" viewBox="0 0 16 16" fill="none" xmlns="http://www.w3.org/2000/svg">
<path fill-rule="evenodd" clip-rule="evenodd" d="M6.24416 3.21905C7.00219 1.82933 8.99771 1.82933 9.75574 3.21905L14.3867 11.7091C15.1136 13.0418 14.149 14.6668 12.6309 14.6668H3.36904C1.85092 14.6668 0.886291 13.0418 1.61325 11.7091L6.24416 3.21905ZM7.39679 11.6668C7.39679 11.2986 7.69526 11.0001 8.06345 11.0001C8.43164 11.0001 8.73012 11.2986 8.73012 11.6668C8.73012 12.035 8.43164 12.3334 8.06345 12.3334C7.69526 12.3334 7.39679 12.035 7.39679 11.6668ZM8.06345 6.0001C7.69526 6.0001 7.39679 6.29858 7.39679 6.66677V9.33344C7.39679 9.70163 7.69526 10.0001 8.06345 10.0001C8.43164 10.0001 8.73012 9.70163 8.73012 9.33344V6.66677C8.73012 6.29858 8.43164 6.0001 8.06345 6.0001Z" fill="#051033" fill-opacity="0.01"/>
<mask id="mask0" mask-type="alpha" maskUnits="userSpaceOnUse" x="1" y="2" width="14" height="13">
<path fill-rule="evenodd" clip-rule="evenodd" d="M6.24416 3.21905C7.00219 1.82933 8.99771 1.82933 9.75574 3.21905L14.3867 11.7091C15.1136 13.0418 14.149 14.6668 12.6309 14.6668H3.36904C1.85092 14.6668 0.886291 13.0418 1.61325 11.7091L6.24416 3.21905ZM7.39679 11.6668C7.39679 11.2986 7.69526 11.0001 8.06345 11.0001C8.43164 11.0001 8.73012 11.2986 8.73012 11.6668C8.73012 12.035 8.43164 12.3334 8.06345 12.3334C7.69526 12.3334 7.39679 12.035 7.39679 11.6668ZM8.06345 6.0001C7.69526 6.0001 7.39679 6.29858 7.39679 6.66677V9.33344C7.39679 9.70163 7.69526 10.0001 8.06345 10.0001C8.43164 10.0001 8.73012 9.70163 8.73012 9.33344V6.66677C8.73012 6.29858 8.43164 6.0001 8.06345 6.0001Z" fill="white"/>
</mask>
<g mask="url(#mask0)">
<rect width="16" height="16" fill="#FF8D8D"/>
</g>
</svg>
