<svg width="17" height="16" viewBox="0 0 17 16" fill="none" xmlns="http://www.w3.org/2000/svg">
<path d="M15.4308 6.15385H14.4231V4.92308L13.8692 3.07692H12.8846V1.84615L12.3077 0H3.69231L3.11538 1.84615V3.07692H2.13077L1.57692 4.92308V6.15385H0.569231L0 8V14.3577C0 15.2615 1.35385 16 2.25769 16H14.3615C15.2 16 16.0038 15.2423 16.0038 14.4231V8L15.4308 6.15385ZM4.92308 1.84615H11.0769V3.07692H4.92308V1.84615ZM3.34615 4.92308H12.6538V6.15385H3.34615V4.92308ZM14.1923 9.23077H11.0154C10.7308 10.6346 9.48846 11.6923 8 11.6923C6.51154 11.6923 5.26923 10.6346 4.98462 9.23077H1.80769V8H14.1923V9.23077Z" fill="#C9CED6"/>
</svg>
