<svg width="16" height="16" viewBox="0 0 16 16" fill="none" xmlns="http://www.w3.org/2000/svg">
<path fill-rule="evenodd" clip-rule="evenodd" d="M5.23063 1.33301L10.7695 1.33301C11.661 1.33301 11.9843 1.42583 12.3103 1.60014C12.6362 1.77445 12.892 2.03024 13.0663 2.35616C13.2406 2.68209 13.3334 3.00537 13.3334 3.89689V13.9997C13.3334 14.3679 13.0349 14.6663 12.6667 14.6663C12.5225 14.6663 12.3821 14.6196 12.2667 14.533L8.00008 11.333L3.73341 14.533C3.43886 14.7539 3.021 14.6942 2.80008 14.3997C2.71353 14.2843 2.66675 14.1439 2.66675 13.9997V3.89689C2.66675 3.00537 2.75957 2.68209 2.93388 2.35616C3.10819 2.03024 3.36398 1.77445 3.6899 1.60014C4.01583 1.42583 4.33911 1.33301 5.23063 1.33301Z" fill="#051033" fill-opacity="0.01"/>
<mask id="mask0" mask-type="alpha" maskUnits="userSpaceOnUse" x="2" y="1" width="12" height="14">
<path fill-rule="evenodd" clip-rule="evenodd" d="M5.23063 1.33301L10.7695 1.33301C11.661 1.33301 11.9843 1.42583 12.3103 1.60014C12.6362 1.77445 12.892 2.03024 13.0663 2.35616C13.2406 2.68209 13.3334 3.00537 13.3334 3.89689V13.9997C13.3334 14.3679 13.0349 14.6663 12.6667 14.6663C12.5225 14.6663 12.3821 14.6196 12.2667 14.533L8.00008 11.333L3.73341 14.533C3.43886 14.7539 3.021 14.6942 2.80008 14.3997C2.71353 14.2843 2.66675 14.1439 2.66675 13.9997V3.89689C2.66675 3.00537 2.75957 2.68209 2.93388 2.35616C3.10819 2.03024 3.36398 1.77445 3.6899 1.60014C4.01583 1.42583 4.33911 1.33301 5.23063 1.33301Z" fill="white"/>
</mask>
<g mask="url(#mask0)">
<path fill-rule="evenodd" clip-rule="evenodd" d="M0 0H16V16H0V0Z" fill="#C9CED6"/>
</g>
</svg>
