<svg width="32" height="33" viewBox="0 0 32 33" fill="none" xmlns="http://www.w3.org/2000/svg">
<circle cx="16" cy="16" r="16" fill="#B073FD"/>
<path d="M0.5 20L14.5 11.5L16.5 14L19 16.5L16 18H19.5V19L18 19.5L21 21L9.5 30.5C5.5 29.5 1 23 0.5 20Z" fill="#8058B1"/>
<path d="M14.7576 11.0039C14.701 11.0186 14.6578 11.0754 14.6582 11.1339V12.0636C14.6582 12.2472 14.7552 12.4101 14.9027 12.5057V12.6807V13.214C14.9323 13.6367 15.0947 13.9321 15.3216 14.1137C15.295 14.3233 15.2048 14.4444 15.0546 14.5558C14.8771 14.6875 14.6189 14.7901 14.3462 14.9065C14.0735 15.023 13.7837 15.1627 13.5609 15.4092C13.3382 15.6558 13.1951 16.0014 13.1952 16.4996V16.5909L13.2715 16.6215H15.3835L15.6229 15.3086C15.5339 15.1948 15.4449 15.0717 15.4447 14.919C15.4447 14.5487 15.7516 14.2413 16.1219 14.2413V14.2419C16.4922 14.2419 16.799 14.5493 16.799 14.9197C16.7987 15.0665 16.7223 15.192 16.6358 15.3098L16.8703 16.6215H18.9723L19.0486 16.5909V16.4996C19.0486 16.0133 18.904 15.6708 18.6828 15.4323C18.4616 15.1939 18.1749 15.066 17.9056 14.9522C17.6364 14.8384 17.3792 14.7367 17.2041 14.6014C17.0322 14.4686 16.9332 14.316 16.9297 14.0225C17.1665 13.8266 17.3308 13.5506 17.3411 13.214V12.6807V12.4675V12.0255C17.3411 11.5998 17.0187 11.2477 16.6095 11.2477H16.2588H15.1465C15.0628 11.2477 14.9937 11.2343 14.9633 11.2177C14.933 11.2007 14.9252 11.1982 14.9252 11.1339C14.9259 11.0522 14.8365 10.9826 14.7576 11.0039ZM16.1219 14.5614C15.9245 14.5614 15.7648 14.7211 15.7649 14.9184C15.765 15.0223 15.8096 15.1136 15.8855 15.1804C15.8913 15.1871 15.9763 15.2481 15.938 15.3661L15.6436 16.9804L16.1219 17.2274L16.6095 16.9829L16.3207 15.3661C16.2825 15.2236 16.3707 15.1804 16.3707 15.1804C16.4388 15.1142 16.4786 15.0159 16.4789 14.9184C16.4789 14.7211 16.3192 14.5614 16.1219 14.5614ZM15.6454 15.3567C15.6472 15.367 15.6446 15.3778 15.6486 15.3848C15.6565 15.3992 15.6637 15.4078 15.6692 15.4136C15.6696 15.4168 15.6701 15.4167 15.6705 15.4167C15.6701 15.4164 15.6744 15.4207 15.6742 15.4205C15.6569 15.4052 15.6608 15.3741 15.6454 15.3567ZM16.6058 15.3823C16.6051 15.3845 16.6051 15.3869 16.6033 15.3892C16.6039 15.386 16.6046 15.3861 16.6052 15.3861C16.6061 15.3845 16.6058 15.3833 16.6058 15.3823ZM15.9618 17.505V17.7913H12.8138C12.6 17.7913 12.4255 17.9703 12.4255 18.1833V19.0574H12.7456V18.1833C12.7456 18.1392 12.7748 18.1114 12.8138 18.1114H15.9618V19.0493H16.2819V18.1114H19.4299C19.469 18.1114 19.4981 18.1393 19.4981 18.1833V19.0568H19.8182V18.1833C19.8182 17.9703 19.6437 17.7913 19.4299 17.7913H16.2819V17.505L16.1194 17.5863L15.9618 17.505ZM11.2645 19.2925C11.1181 19.2925 11 19.4012 11 19.5363V20.7562C11 20.8913 11.1181 21 11.2645 21H13.9067C14.0531 21 14.1705 20.8913 14.1705 20.7562V19.5363C14.1705 19.4012 14.0531 19.2925 13.9067 19.2925H11.2645ZM14.9027 19.2925C14.7675 19.2925 14.6582 19.4012 14.6582 19.5363V20.7562C14.6582 20.8913 14.7675 21 14.9027 21H17.3411C17.4762 21 17.5855 20.8913 17.5855 20.7562V19.5363C17.5855 19.4012 17.4762 19.2925 17.3411 19.2925H14.9027ZM18.337 19.2925C18.1907 19.2925 18.0732 19.4012 18.0732 19.5363V20.7562C18.0732 20.8913 18.1907 21 18.337 21H20.9793C21.1256 21 21.2437 20.8913 21.2437 20.7562V19.5363C21.2437 19.4012 21.1256 19.2925 20.9793 19.2925H18.337Z" fill="white"/>
</svg>
