<svg width="20" height="26" viewBox="0 0 20 26" fill="none" xmlns="http://www.w3.org/2000/svg">
<path d="M12.1185 1.00039L12.1185 6.40039C12.1185 6.95267 12.5662 7.40039 13.1185 7.40039L18.9607 7.40039" stroke="#7396FD" stroke-miterlimit="10" stroke-linecap="round" stroke-linejoin="round"/>
<path d="M2.00003 0.999999C1.44774 0.999999 1.00003 1.44771 1.00003 2L1.00003 24C1.00003 24.5523 1.44774 25 2.00003 25L17.9607 25C18.513 25 18.9607 24.5523 18.9607 24L18.9607 7.83391C18.9607 7.5571 18.846 7.29268 18.6438 7.10359L12.4069 1.26969C12.2216 1.0964 11.9774 0.999999 11.7237 0.999999L2.00003 0.999999Z" stroke="#7396FD" stroke-miterlimit="10" stroke-linecap="round" stroke-linejoin="round"/>
<rect opacity="0.5" x="1.01978" y="12.4004" width="13.2" height="6" fill="#7396FD"/>
</svg>
