<svg width="16" height="16" viewBox="0 0 16 16" fill="none" xmlns="http://www.w3.org/2000/svg">
<path fill-rule="evenodd" clip-rule="evenodd" d="M1.70856 6.36672C1.47134 6.55649 1.33325 6.84381 1.33325 7.14759V13.667C1.33325 14.2193 1.78097 14.667 2.33325 14.667L5.99992 14.667V10.667C5.99992 9.5624 6.89535 8.66697 7.99992 8.66697C9.10449 8.66697 9.99992 9.5624 9.99992 10.667V14.667L13.6666 14.667C14.2189 14.667 14.6666 14.2193 14.6666 13.667V7.14759C14.6666 6.84381 14.5285 6.55649 14.2913 6.36672L8.62461 1.83339C8.2594 1.54121 7.74044 1.54121 7.37522 1.83339L1.70856 6.36672Z" fill="#051033" fill-opacity="0.01"/>
<mask id="mask0" mask-type="alpha" maskUnits="userSpaceOnUse" x="1" y="1" width="14" height="14">
<path fill-rule="evenodd" clip-rule="evenodd" d="M1.70856 6.36672C1.47134 6.55649 1.33325 6.84381 1.33325 7.14759V13.667C1.33325 14.2193 1.78097 14.667 2.33325 14.667L5.99992 14.667V10.667C5.99992 9.5624 6.89535 8.66697 7.99992 8.66697C9.10449 8.66697 9.99992 9.5624 9.99992 10.667V14.667L13.6666 14.667C14.2189 14.667 14.6666 14.2193 14.6666 13.667V7.14759C14.6666 6.84381 14.5285 6.55649 14.2913 6.36672L8.62461 1.83339C8.2594 1.54121 7.74044 1.54121 7.37522 1.83339L1.70856 6.36672Z" fill="white"/>
</mask>
<g mask="url(#mask0)">
<path fill-rule="evenodd" clip-rule="evenodd" d="M0 0H16V16H0V0Z" fill="#182C4F"/>
</g>
</svg>
