<svg width="32" height="33" viewBox="0 0 32 33" fill="none" xmlns="http://www.w3.org/2000/svg">
<circle cx="16" cy="16" r="16" fill="#8FD7FF"/>
<path d="M0.5 20L14.5 11.5L17.5 16L13.5 18.5L21 21.5L9.5 30.5C5.5 29.5 1 23 0.5 20Z" fill="#68A7CB"/>
<g filter="url(#filter0_d)">
<path d="M16 16C17.3751 16 18.5 14.875 18.5 13.5C18.5 12.125 17.3751 11 16 11C14.6249 11 13.5 12.125 13.5 13.5C13.5 14.875 14.6249 16 16 16ZM16 17.25C14.3438 17.25 11 18.0938 11 19.75V21H21V19.75C21 18.0938 17.6562 17.25 16 17.25Z" fill="white"/>
</g>
<circle cx="16" cy="16" r="16" fill="#8FD7FF"/>
<path d="M0.5 20L14.5 11.5L17.5 16L13.5 18.5L21 21.5L9.5 30.5C5.5 29.5 1 23 0.5 20Z" fill="#68A7CB"/>
<g filter="url(#filter1_d)">
<path d="M16 16C17.3751 16 18.5 14.875 18.5 13.5C18.5 12.125 17.3751 11 16 11C14.6249 11 13.5 12.125 13.5 13.5C13.5 14.875 14.6249 16 16 16ZM16 17.25C14.3438 17.25 11 18.0938 11 19.75V21H21V19.75C21 18.0938 17.6562 17.25 16 17.25Z" fill="white"/>
</g>
<defs>
<filter id="filter0_d" x="11" y="11" width="10" height="10.5" filterUnits="userSpaceOnUse" color-interpolation-filters="sRGB">
<feFlood flood-opacity="0" result="BackgroundImageFix"/>
<feColorMatrix in="SourceAlpha" type="matrix" values="0 0 0 0 0 0 0 0 0 0 0 0 0 0 0 0 0 0 127 0"/>
<feOffset dy="0.5"/>
<feColorMatrix type="matrix" values="0 0 0 0 0.296943 0 0 0 0 0.296943 0 0 0 0 0.296943 0 0 0 1 0"/>
<feBlend mode="normal" in2="BackgroundImageFix" result="effect1_dropShadow"/>
<feBlend mode="normal" in="SourceGraphic" in2="effect1_dropShadow" result="shape"/>
</filter>
<filter id="filter1_d" x="11" y="11" width="10" height="10.5" filterUnits="userSpaceOnUse" color-interpolation-filters="sRGB">
<feFlood flood-opacity="0" result="BackgroundImageFix"/>
<feColorMatrix in="SourceAlpha" type="matrix" values="0 0 0 0 0 0 0 0 0 0 0 0 0 0 0 0 0 0 127 0"/>
<feOffset dy="0.5"/>
<feColorMatrix type="matrix" values="0 0 0 0 0.296943 0 0 0 0 0.296943 0 0 0 0 0.296943 0 0 0 1 0"/>
<feBlend mode="normal" in2="BackgroundImageFix" result="effect1_dropShadow"/>
<feBlend mode="normal" in="SourceGraphic" in2="effect1_dropShadow" result="shape"/>
</filter>
</defs>
</svg>
