<svg width="16" height="16" viewBox="0 0 16 16" fill="none" xmlns="http://www.w3.org/2000/svg">
<path fill-rule="evenodd" clip-rule="evenodd" d="M3.13325 9.33301C3.13325 10.0391 2.58276 10.6663 1.99992 10.6663C1.11103 10.6663 1.11103 11.9997 1.99992 11.9997H13.9999C14.8888 11.9997 14.8888 10.6663 13.9999 10.6663C13.4171 10.6663 12.8666 10.0391 12.8666 9.33301V6.35523C12.8666 3.58685 10.6932 1.33301 7.99992 1.33301C5.3066 1.33301 3.13325 3.58685 3.13325 6.35523V9.33301ZM7.99992 14.6616C8.82428 14.6616 9.58628 14.1554 9.99992 13.333H5.99992C6.41356 14.1554 7.17556 14.6616 7.99992 14.6616Z" fill="#051033" fill-opacity="0.01"/>
<mask id="mask0" mask-type="alpha" maskUnits="userSpaceOnUse" x="1" y="1" width="14" height="14">
<path fill-rule="evenodd" clip-rule="evenodd" d="M3.13325 9.33301C3.13325 10.0391 2.58276 10.6663 1.99992 10.6663C1.11103 10.6663 1.11103 11.9997 1.99992 11.9997H13.9999C14.8888 11.9997 14.8888 10.6663 13.9999 10.6663C13.4171 10.6663 12.8666 10.0391 12.8666 9.33301V6.35523C12.8666 3.58685 10.6932 1.33301 7.99992 1.33301C5.3066 1.33301 3.13325 3.58685 3.13325 6.35523V9.33301ZM7.99992 14.6616C8.82428 14.6616 9.58628 14.1554 9.99992 13.333H5.99992C6.41356 14.1554 7.17556 14.6616 7.99992 14.6616Z" fill="white"/>
</mask>
<g mask="url(#mask0)">
<path fill-rule="evenodd" clip-rule="evenodd" d="M0 0H16V16H0V0Z" fill="#C9CED6"/>
</g>
</svg>
