<svg width="16" height="17" viewBox="0 0 16 17" fill="none" xmlns="http://www.w3.org/2000/svg">
<path d="M14.6792 8C14.6792 7.125 15.225 6.37917 16 6.07917C15.7958 5.225 15.4583 4.425 15.0125 3.7C14.7458 3.81667 14.4625 3.87917 14.175 3.87917C13.65 3.87917 13.125 3.67917 12.7208 3.27917C12.1 2.65833 11.9625 1.74583 12.2958 0.9875C11.575 0.541667 10.7708 0.204167 9.92083 0C9.625 0.770833 8.875 1.32083 8 1.32083C7.125 1.32083 6.375 0.770833 6.07917 0C5.225 0.204167 4.425 0.541667 3.7 0.9875C4.0375 1.74167 3.89583 2.65833 3.275 3.27917C2.875 3.67917 2.34583 3.87917 1.82083 3.87917C1.53333 3.87917 1.25 3.82083 0.983333 3.7C0.541667 4.42917 0.204167 5.22917 0 6.08333C0.770833 6.37917 1.32083 7.125 1.32083 8.00417C1.32083 8.87917 0.775 9.625 0.0041666 9.925C0.208333 10.7792 0.545833 11.5792 0.991667 12.3042C1.25833 12.1875 1.54167 12.1292 1.825 12.1292C2.35 12.1292 2.875 12.3292 3.27917 12.7292C3.89583 13.3458 4.0375 14.2625 3.70417 15.0167C4.42917 15.4625 5.23333 15.8 6.08333 16.0042C6.37917 15.2333 7.125 14.6875 8 14.6875C8.875 14.6875 9.62083 15.2333 9.91667 16.0042C10.7708 15.8 11.5708 15.4625 12.2958 15.0167C11.9625 14.2625 12.1042 13.35 12.7208 12.7292C13.1208 12.3292 13.6458 12.1292 14.175 12.1292C14.4583 12.1292 14.7458 12.1875 15.0083 12.3042C15.4542 11.5792 15.7917 10.775 15.9958 9.925C15.2292 9.625 14.6792 8.87917 14.6792 8ZM8.0375 11.3292C6.19167 11.3292 4.70417 9.83333 4.70417 7.99583C4.70417 6.15833 6.19167 4.6625 8.0375 4.6625C9.88333 4.6625 11.3708 6.15833 11.3708 7.99583C11.3708 9.83333 9.88333 11.3292 8.0375 11.3292Z" fill="#C9CED6"/>
</svg>
