<svg width="16" height="16" viewBox="0 0 16 16" fill="none" xmlns="http://www.w3.org/2000/svg">
<path fill-rule="evenodd" clip-rule="evenodd" d="M8.00004 14.6663C11.6819 14.6663 14.6667 11.6816 14.6667 7.99967C14.6667 4.31778 11.6819 1.33301 8.00004 1.33301C4.31814 1.33301 1.33337 4.31778 1.33337 7.99967C1.33337 11.6816 4.31814 14.6663 8.00004 14.6663ZM10.2095 5.8616C10.4698 5.60125 10.8919 5.60125 11.1523 5.8616C11.4126 6.12195 11.4126 6.54406 11.1523 6.80441L7.15228 10.8044C6.89193 11.0648 6.46982 11.0648 6.20947 10.8044L4.52864 9.12358C4.26829 8.86323 4.26829 8.44112 4.52864 8.18077C4.78899 7.92042 5.2111 7.92042 5.47145 8.18077L6.68087 9.3902L10.2095 5.8616Z" fill="#051033" fill-opacity="0.01"/>
<mask id="mask0" mask-type="alpha" maskUnits="userSpaceOnUse" x="1" y="1" width="14" height="14">
<path fill-rule="evenodd" clip-rule="evenodd" d="M8.00004 14.6663C11.6819 14.6663 14.6667 11.6816 14.6667 7.99967C14.6667 4.31778 11.6819 1.33301 8.00004 1.33301C4.31814 1.33301 1.33337 4.31778 1.33337 7.99967C1.33337 11.6816 4.31814 14.6663 8.00004 14.6663ZM10.2095 5.8616C10.4698 5.60125 10.8919 5.60125 11.1523 5.8616C11.4126 6.12195 11.4126 6.54406 11.1523 6.80441L7.15228 10.8044C6.89193 11.0648 6.46982 11.0648 6.20947 10.8044L4.52864 9.12358C4.26829 8.86323 4.26829 8.44112 4.52864 8.18077C4.78899 7.92042 5.2111 7.92042 5.47145 8.18077L6.68087 9.3902L10.2095 5.8616Z" fill="white"/>
</mask>
<g mask="url(#mask0)">
<rect width="16" height="16" fill="#0BB07B"/>
</g>
</svg>
