<svg width="32" height="32" viewBox="0 0 32 32" fill="none" xmlns="http://www.w3.org/2000/svg">
<circle cx="16" cy="16" r="16" fill="#82B1ED"/>
<path d="M0.5 19L10.5 11.5L13.5 14.5L14.5 13L18.5 14.5L19 12L24.5 20.5L10 31C3 27.5 0.5 22 0.5 19Z" fill="#597EAF"/>
<g filter="url(#filter0_d)">
<path d="M16.2725 16.1205C17.4214 16.1205 18.3528 15.1891 18.3528 14.0402C18.3528 12.8913 17.4214 11.96 16.2725 11.96C15.1236 11.96 14.1923 12.8913 14.1923 14.0402C14.1923 15.1891 15.1236 16.1205 16.2725 16.1205Z" fill="white"/>
<path d="M16.2729 16.5195C14.2335 16.5195 12.5743 18.5134 12.515 21.0003H20.0308C19.9709 18.5134 18.3122 16.5195 16.2729 16.5195Z" fill="white"/>
<path d="M20.7874 15.1605C21.9363 15.1605 22.8677 14.2292 22.8677 13.0803C22.8677 11.9314 21.9363 11 20.7874 11C19.6385 11 18.7072 11.9314 18.7072 13.0803C18.7072 14.2292 19.6385 15.1605 20.7874 15.1605Z" fill="white"/>
<path d="M20.7874 15.5586C19.8308 15.5586 18.9584 15.9971 18.295 16.7191C19.3516 17.3966 20.1493 18.5964 20.4639 20.0396H24.5455C24.4858 17.5527 22.8268 15.5586 20.7874 15.5586Z" fill="white"/>
<path d="M11.7584 15.1605C12.9073 15.1605 13.8386 14.2292 13.8386 13.0803C13.8386 11.9314 12.9073 11 11.7584 11C10.6095 11 9.6781 11.9314 9.6781 13.0803C9.6781 14.2292 10.6095 15.1605 11.7584 15.1605Z" fill="white"/>
<path d="M14.2504 16.7191C13.587 15.9971 12.7143 15.5586 11.7581 15.5586C9.71863 15.5586 8.05952 17.5527 8 20.0396H12.0815C12.3958 18.5962 13.194 17.3966 14.2504 16.7191Z" fill="white"/>
</g>
<defs>
<filter id="filter0_d" x="8" y="11" width="16.5455" height="10.5003" filterUnits="userSpaceOnUse" color-interpolation-filters="sRGB">
<feFlood flood-opacity="0" result="BackgroundImageFix"/>
<feColorMatrix in="SourceAlpha" type="matrix" values="0 0 0 0 0 0 0 0 0 0 0 0 0 0 0 0 0 0 127 0"/>
<feOffset dy="0.5"/>
<feColorMatrix type="matrix" values="0 0 0 0 0.296943 0 0 0 0 0.296943 0 0 0 0 0.296943 0 0 0 1 0"/>
<feBlend mode="normal" in2="BackgroundImageFix" result="effect1_dropShadow"/>
<feBlend mode="normal" in="SourceGraphic" in2="effect1_dropShadow" result="shape"/>
</filter>
</defs>
</svg>
